<svg width="20" height="20" viewBox="0 0 20 20" fill="none" xmlns="http://www.w3.org/2000/svg">
<path fill-rule="evenodd" clip-rule="evenodd" d="M13.6117 1.66666C16.4359 1.66666 18.3334 3.64833 18.3334 6.59666V13.4033C18.3334 16.3517 16.4359 18.3333 13.6109 18.3333H6.38752C3.56335 18.3333 1.66669 16.3517 1.66669 13.4033V6.59666C1.66669 3.64833 3.56335 1.66666 6.38752 1.66666H13.6117ZM13.6117 2.91666H6.38752C4.27919 2.91666 2.91669 4.36083 2.91669 6.59666V13.4033C2.91669 15.6392 4.27919 17.0833 6.38752 17.0833H13.6109C15.72 17.0833 17.0834 15.6392 17.0834 13.4033V6.59666C17.0834 4.36083 15.72 2.91666 13.6117 2.91666ZM13.4079 7.58083C13.6521 7.825 13.6521 8.22 13.4079 8.46416L9.45294 12.4192C9.33127 12.5417 9.17127 12.6025 9.01127 12.6025C8.8521 12.6025 8.69127 12.5417 8.5696 12.4192L6.59127 10.4417C6.3471 10.1975 6.3471 9.8025 6.59127 9.55833C6.83544 9.31416 7.23044 9.31416 7.4746 9.55833L9.01127 11.0933L12.5246 7.58083C12.7688 7.33666 13.1638 7.33666 13.4079 7.58083Z" fill="#4A5568"/>
</svg>
