<svg width="24" height="24" viewBox="0 0 24 24" fill="none" xmlns="http://www.w3.org/2000/svg">
<path d="M20 3H4C2.9 3 2.01 4.0125 2.01 5.25L2 18.75C2 19.9875 2.9 21 4 21H20C21.1 21 22 19.9875 22 18.75V5.25C22 4.0125 21.1 3 20 3ZM19.6 7.78125L12.53 12.7538C12.21 12.9788 11.79 12.9788 11.47 12.7538L4.4 7.78125C4.29973 7.71792 4.21192 7.63237 4.14189 7.52976C4.07186 7.42715 4.02106 7.30963 3.99258 7.18429C3.96409 7.05896 3.9585 6.92843 3.97616 6.8006C3.99381 6.67276 4.03434 6.55029 4.09528 6.44059C4.15623 6.33089 4.23632 6.23624 4.33073 6.16237C4.42513 6.0885 4.53187 6.03695 4.6445 6.01084C4.75712 5.98472 4.87328 5.98459 4.98595 6.01044C5.09863 6.0363 5.20546 6.0876 5.3 6.16125L12 10.875L18.7 6.16125C18.7945 6.0876 18.9014 6.0363 19.014 6.01044C19.1267 5.98459 19.2429 5.98472 19.3555 6.01084C19.4681 6.03695 19.5749 6.0885 19.6693 6.16237C19.7637 6.23624 19.8438 6.33089 19.9047 6.44059C19.9657 6.55029 20.0062 6.67276 20.0238 6.8006C20.0415 6.92843 20.0359 7.05896 20.0074 7.18429C19.9789 7.30963 19.9281 7.42715 19.8581 7.52976C19.7881 7.63237 19.7003 7.71792 19.6 7.78125V7.78125Z" fill="black"/>
</svg>
