<svg width="97" height="24" viewBox="0 0 97 24" fill="none" xmlns="http://www.w3.org/2000/svg">
<path d="M11.55 1.5C12.644 1.5 13.6932 1.89509 14.4668 2.59835C15.2404 3.30161 15.675 4.25544 15.675 5.25V6H7.425V5.25C7.425 4.25544 7.8596 3.30161 8.63318 2.59835C9.40677 1.89509 10.456 1.5 11.55 1.5ZM17.325 6V5.25C17.325 3.85761 16.7166 2.52226 15.6335 1.53769C14.5505 0.553123 13.0816 0 11.55 0C10.0184 0 8.54948 0.553123 7.46646 1.53769C6.38344 2.52226 5.775 3.85761 5.775 5.25V6H0V21C0 21.7957 0.347678 22.5587 0.966548 23.1213C1.58542 23.6839 2.42479 24 3.3 24H19.8C20.6752 24 21.5146 23.6839 22.1335 23.1213C22.7523 22.5587 23.1 21.7957 23.1 21V6H17.325ZM1.65 7.5H21.45V21C21.45 21.3978 21.2762 21.7794 20.9667 22.0607C20.6573 22.342 20.2376 22.5 19.8 22.5H3.3C2.86239 22.5 2.44271 22.342 2.13327 22.0607C1.82384 21.7794 1.65 21.3978 1.65 21V7.5Z" fill="white"/>
<path d="M34.925 12.57C34.0523 12.57 33.308 12.4393 32.692 12.178C32.0863 11.9073 31.5935 11.5387 31.2136 11.072C30.844 10.6053 30.5719 10.078 30.3974 9.49C30.2229 8.89267 30.1356 8.272 30.1356 7.628V2.56H32.2608V7.628C32.2608 8.03867 32.3019 8.44 32.384 8.832C32.4764 9.21467 32.6253 9.56 32.8306 9.868C33.0359 10.176 33.308 10.4187 33.6468 10.596C33.9856 10.7733 34.4065 10.862 34.9096 10.862C35.4229 10.862 35.849 10.7733 36.1878 10.596C36.5369 10.4093 36.8089 10.162 37.004 9.854C37.2093 9.546 37.3582 9.20067 37.4506 8.818C37.543 8.426 37.5892 8.02933 37.5892 7.628V2.56H39.699V7.628C39.699 8.30933 39.6066 8.94867 39.4218 9.546C39.2473 10.1433 38.9649 10.6707 38.5748 11.128C38.1949 11.576 37.7021 11.9307 37.0964 12.192C36.4907 12.444 35.7669 12.57 34.925 12.57Z" fill="white"/>
<path d="M50.7562 12.5V5.976L47.9534 10.834H46.7676L43.9648 5.976V12.5H41.8396V2.56H44.1188L47.3528 8.216L50.6176 2.56H52.8814V12.5H50.7562Z" fill="white"/>
<path d="M55.1642 12.5V2.574H57.2894V7.292L61.8786 2.56H64.2194L60.0306 6.97L64.4812 12.5H62.0788L58.6754 8.216L57.2894 9.532V12.5H55.1642Z" fill="white"/>
<path d="M74.3826 12.5V5.976L71.5798 10.834H70.394L67.5912 5.976V12.5H65.466V2.56H67.7452L70.9792 8.216L74.244 2.56H76.5078V12.5H74.3826Z" fill="white"/>
<path d="M29.898 22.5V16.82H32.0628C32.7316 16.82 33.2889 16.948 33.7348 17.204C34.1865 17.4547 34.5239 17.796 34.7468 18.228C34.9697 18.6547 35.0812 19.1293 35.0812 19.652C35.0812 20.228 34.958 20.7293 34.7116 21.156C34.4652 21.5827 34.1161 21.9133 33.6644 22.148C33.2127 22.3827 32.6788 22.5 32.0628 22.5H29.898ZM34.2804 19.652C34.2804 19.2253 34.1924 18.8467 34.0164 18.516C33.8463 18.1853 33.5969 17.9267 33.2684 17.74C32.9399 17.5533 32.538 17.46 32.0628 17.46H30.69V21.86H32.0628C32.5439 21.86 32.9487 21.764 33.2772 21.572C33.6057 21.3747 33.8551 21.1107 34.0252 20.78C34.1953 20.444 34.2804 20.068 34.2804 19.652Z" fill="white"/>
<path d="M43.0788 21.86V22.5H38.8372V16.82H42.9996V17.46H39.6292V19.3H42.5596V19.9H39.6292V21.86H43.0788Z" fill="white"/>
<path d="M50.4749 18.012C50.4045 17.9373 50.3107 17.8653 50.1933 17.796C50.076 17.7267 49.944 17.6653 49.7973 17.612C49.6507 17.5533 49.4893 17.508 49.3133 17.476C49.1432 17.4387 48.9643 17.42 48.7765 17.42C48.2955 17.42 47.9405 17.5027 47.7117 17.668C47.4829 17.8333 47.3685 18.06 47.3685 18.348C47.3685 18.5507 47.4272 18.7107 47.5445 18.828C47.6619 18.9453 47.8408 19.0413 48.0813 19.116C48.3277 19.1907 48.6387 19.268 49.0141 19.348C49.4483 19.4333 49.8237 19.5373 50.1405 19.66C50.4573 19.7827 50.7008 19.948 50.8709 20.156C51.0411 20.3587 51.1261 20.6307 51.1261 20.972C51.1261 21.244 51.0675 21.4813 50.9501 21.684C50.8387 21.8813 50.6803 22.0467 50.4749 22.18C50.2696 22.308 50.0291 22.404 49.7533 22.468C49.4776 22.5267 49.1784 22.556 48.8557 22.556C48.5389 22.556 48.228 22.5267 47.9229 22.468C47.6237 22.404 47.3392 22.3133 47.0693 22.196C46.7995 22.0787 46.5472 21.932 46.3125 21.756L46.6909 21.148C46.7848 21.2387 46.9051 21.3293 47.0517 21.42C47.2043 21.5053 47.3744 21.5853 47.5621 21.66C47.7557 21.7347 47.964 21.796 48.1869 21.844C48.4099 21.8867 48.6387 21.908 48.8733 21.908C49.3192 21.908 49.6653 21.836 49.9117 21.692C50.1581 21.5427 50.2813 21.3267 50.2813 21.044C50.2813 20.8307 50.2109 20.66 50.0701 20.532C49.9352 20.404 49.7328 20.2973 49.4629 20.212C49.1931 20.1267 48.8645 20.0413 48.4773 19.956C48.0549 19.86 47.7 19.756 47.4125 19.644C47.1251 19.5267 46.908 19.3747 46.7613 19.188C46.6205 19.0013 46.5501 18.7587 46.5501 18.46C46.5501 18.0973 46.6469 17.7907 46.8405 17.54C47.0341 17.2893 47.3011 17.1 47.6413 16.972C47.9816 16.844 48.3659 16.78 48.7941 16.78C49.0757 16.78 49.3368 16.8067 49.5773 16.86C49.8237 16.9133 50.0525 16.988 50.2637 17.084C50.4749 17.18 50.6685 17.2947 50.8445 17.428L50.4749 18.012Z" fill="white"/>
<path d="M56.5883 16.82H57.2571L59.8091 22.5H58.9643L58.2251 20.836H55.6027L54.8723 22.5H54.0275L56.5883 16.82ZM58.0491 20.276L56.9227 17.652L55.7611 20.276H58.0491Z" fill="white"/>
<path d="M67.8738 22.5V16.82H70.4786C70.7543 16.82 71.0066 16.8733 71.2354 16.98C71.4642 17.0813 71.6637 17.22 71.8338 17.396C72.0039 17.5667 72.1359 17.7613 72.2298 17.98C72.3236 18.1933 72.3706 18.412 72.3706 18.636C72.3706 18.9453 72.2943 19.2413 72.1418 19.524C71.9893 19.8013 71.7751 20.028 71.4994 20.204C71.2236 20.3747 70.901 20.46 70.5314 20.46H68.6658V22.5H67.8738ZM68.6658 19.82H70.4874C70.7045 19.82 70.8922 19.7667 71.0506 19.66C71.2149 19.5533 71.341 19.4093 71.429 19.228C71.5229 19.0467 71.5698 18.8493 71.5698 18.636C71.5698 18.412 71.517 18.212 71.4114 18.036C71.3058 17.8547 71.1679 17.7133 70.9978 17.612C70.8276 17.5107 70.6399 17.46 70.4346 17.46H68.6658V19.82Z" fill="white"/>
<path d="M77.4505 16.82H78.1193L80.6713 22.5H79.8265L79.0873 20.836H76.4649L75.7345 22.5H74.8897L77.4505 16.82ZM78.9113 20.276L77.7849 17.652L76.6233 20.276H78.9113Z" fill="white"/>
<path d="M84.1452 22.5V16.82H86.8204C87.0961 16.82 87.3484 16.8733 87.5772 16.98C87.806 17.0813 88.0055 17.22 88.1756 17.396C88.3457 17.5667 88.4777 17.7613 88.5716 17.98C88.6655 18.1933 88.7124 18.412 88.7124 18.636C88.7124 18.8973 88.6567 19.1453 88.5452 19.38C88.4396 19.6147 88.2871 19.8147 88.0876 19.98C87.894 20.1453 87.6652 20.26 87.4012 20.324L88.9148 22.5H88.0172L86.5916 20.46H84.9372V22.5H84.1452ZM84.9372 19.82H86.8292C87.0463 19.82 87.234 19.7667 87.3924 19.66C87.5567 19.548 87.6828 19.4013 87.7708 19.22C87.8647 19.0387 87.9116 18.844 87.9116 18.636C87.9116 18.4227 87.8588 18.228 87.7532 18.052C87.6476 17.8707 87.5097 17.7267 87.3396 17.62C87.1695 17.5133 86.9817 17.46 86.7764 17.46H84.9372V19.82Z" fill="white"/>
<path d="M96.8104 21.86V22.5H92.5688V16.82H96.7312V17.46H93.3608V19.3H96.2912V19.9H93.3608V21.86H96.8104Z" fill="white"/>
</svg>
