<svg width="118" height="32" viewBox="0 0 118 32" fill="none" xmlns="http://www.w3.org/2000/svg">
<path d="M14 2C15.3261 2 16.5979 2.52678 17.5355 3.46447C18.4732 4.40215 19 5.67392 19 7V8H9V7C9 5.67392 9.52678 4.40215 10.4645 3.46447C11.4021 2.52678 12.6739 2 14 2ZM21 8V7C21 5.14348 20.2625 3.36301 18.9497 2.05025C17.637 0.737498 15.8565 0 14 0C12.1435 0 10.363 0.737498 9.05025 2.05025C7.7375 3.36301 7 5.14348 7 7V8H0V28C0 29.0609 0.421427 30.0783 1.17157 30.8284C1.92172 31.5786 2.93913 32 4 32H24C25.0609 32 26.0783 31.5786 26.8284 30.8284C27.5786 30.0783 28 29.0609 28 28V8H21ZM2 10H26V28C26 28.5304 25.7893 29.0391 25.4142 29.4142C25.0391 29.7893 24.5304 30 24 30H4C3.46957 30 2.96086 29.7893 2.58579 29.4142C2.21071 29.0391 2 28.5304 2 28V10Z" fill="#1A202C"/>
<path d="M42.3333 16.76C41.2756 16.76 40.3733 16.5858 39.6267 16.2373C38.8924 15.8764 38.2951 15.3849 37.8347 14.7627C37.3867 14.1404 37.0569 13.4373 36.8453 12.6533C36.6338 11.8569 36.528 11.0293 36.528 10.1707V3.41333H39.104V10.1707C39.104 10.7182 39.1538 11.2533 39.2533 11.776C39.3653 12.2862 39.5458 12.7467 39.7947 13.1573C40.0436 13.568 40.3733 13.8916 40.784 14.128C41.1947 14.3644 41.7049 14.4827 42.3147 14.4827C42.9369 14.4827 43.4533 14.3644 43.864 14.128C44.2871 13.8791 44.6169 13.5493 44.8533 13.1387C45.1022 12.728 45.2827 12.2676 45.3947 11.7573C45.5067 11.2347 45.5627 10.7058 45.5627 10.1707V3.41333H48.12V10.1707C48.12 11.0791 48.008 11.9316 47.784 12.728C47.5724 13.5244 47.2302 14.2276 46.7573 14.8373C46.2969 15.4347 45.6996 15.9076 44.9653 16.256C44.2311 16.592 43.3538 16.76 42.3333 16.76Z" fill="#1A202C"/>
<path d="M61.5227 16.6667V7.968L58.1253 14.4453H56.688L53.2907 7.968V16.6667H50.7147V3.41333H53.4773L57.3973 10.9547L61.3547 3.41333H64.0987V16.6667H61.5227Z" fill="#1A202C"/>
<path d="M66.8657 16.6667V3.432H69.4417V9.72267L75.0044 3.41333H77.8417L72.7644 9.29333L78.159 16.6667H75.247L71.1217 10.9547L69.4417 12.7093V16.6667H66.8657Z" fill="#1A202C"/>
<path d="M90.1607 16.6667V7.968L86.7634 14.4453H85.326L81.9287 7.968V16.6667H79.3527V3.41333H82.1154L86.0354 10.9547L89.9927 3.41333H92.7367V16.6667H90.1607Z" fill="#1A202C"/>
<path d="M36.24 30V22.4267H38.864C39.6747 22.4267 40.3502 22.5973 40.8907 22.9387C41.4382 23.2729 41.8471 23.728 42.1173 24.304C42.3876 24.8729 42.5227 25.5058 42.5227 26.2027C42.5227 26.9707 42.3733 27.6391 42.0747 28.208C41.776 28.7769 41.3529 29.2178 40.8053 29.5307C40.2578 29.8436 39.6107 30 38.864 30H36.24ZM41.552 26.2027C41.552 25.6338 41.4453 25.1289 41.232 24.688C41.0258 24.2471 40.7236 23.9022 40.3253 23.6533C39.9271 23.4044 39.44 23.28 38.864 23.28H37.2V29.1467H38.864C39.4471 29.1467 39.9378 29.0187 40.336 28.7627C40.7342 28.4996 41.0364 28.1476 41.2427 27.7067C41.4489 27.2587 41.552 26.7573 41.552 26.2027Z" fill="#1A202C"/>
<path d="M52.2168 29.1467V30H47.0754V22.4267H52.1208V23.28H48.0354V25.7333H51.5874V26.5333H48.0354V29.1467H52.2168Z" fill="#1A202C"/>
<path d="M61.1818 24.016C61.0964 23.9164 60.9826 23.8204 60.8404 23.728C60.6982 23.6356 60.5382 23.5538 60.3604 23.4827C60.1826 23.4044 59.9871 23.344 59.7738 23.3013C59.5675 23.2516 59.3506 23.2267 59.1231 23.2267C58.54 23.2267 58.1098 23.3369 57.8324 23.5573C57.5551 23.7778 57.4164 24.08 57.4164 24.464C57.4164 24.7342 57.4875 24.9476 57.6298 25.104C57.772 25.2604 57.9889 25.3884 58.2804 25.488C58.5791 25.5876 58.956 25.6907 59.4111 25.7973C59.9373 25.9111 60.3924 26.0498 60.7764 26.2133C61.1604 26.3769 61.4555 26.5973 61.6618 26.8747C61.868 27.1449 61.9711 27.5076 61.9711 27.9627C61.9711 28.3253 61.9 28.6418 61.7578 28.912C61.6226 29.1751 61.4306 29.3956 61.1818 29.5733C60.9329 29.744 60.6413 29.872 60.3071 29.9573C59.9729 30.0356 59.6102 30.0747 59.2191 30.0747C58.8351 30.0747 58.4582 30.0356 58.0884 29.9573C57.7258 29.872 57.3809 29.7511 57.0538 29.5947C56.7266 29.4382 56.4209 29.2427 56.1364 29.008L56.5951 28.1973C56.7089 28.3182 56.8546 28.4391 57.0324 28.56C57.2173 28.6738 57.4235 28.7804 57.6511 28.88C57.8857 28.9796 58.1382 29.0613 58.4084 29.1253C58.6786 29.1822 58.956 29.2107 59.2404 29.2107C59.7809 29.2107 60.2004 29.1147 60.4991 28.9227C60.7978 28.7236 60.9471 28.4356 60.9471 28.0587C60.9471 27.7742 60.8618 27.5467 60.6911 27.376C60.5275 27.2053 60.2822 27.0631 59.9551 26.9493C59.628 26.8356 59.2298 26.7218 58.7604 26.608C58.2484 26.48 57.8182 26.3413 57.4698 26.192C57.1213 26.0356 56.8582 25.8329 56.6804 25.584C56.5098 25.3351 56.4244 25.0116 56.4244 24.6133C56.4244 24.1298 56.5418 23.7209 56.7764 23.3867C57.0111 23.0524 57.3346 22.8 57.7471 22.6293C58.1595 22.4587 58.6253 22.3733 59.1444 22.3733C59.4858 22.3733 59.8022 22.4089 60.0938 22.48C60.3924 22.5511 60.6698 22.6507 60.9258 22.7787C61.1818 22.9067 61.4164 23.0596 61.6298 23.2373L61.1818 24.016Z" fill="#1A202C"/>
<path d="M68.5919 22.4267H69.4026L72.4959 30H71.4719L70.5759 27.7813H67.3973L66.5119 30H65.4879L68.5919 22.4267ZM70.3626 27.0347L68.9973 23.536L67.5893 27.0347H70.3626Z" fill="#1A202C"/>
<path d="M82.2713 30V22.4267H85.4286C85.7628 22.4267 86.0686 22.4978 86.3459 22.64C86.6233 22.7751 86.865 22.96 87.0713 23.1947C87.2775 23.4222 87.4375 23.6818 87.5513 23.9733C87.665 24.2578 87.7219 24.5493 87.7219 24.848C87.7219 25.2604 87.6295 25.6551 87.4446 26.032C87.2597 26.4018 87.0001 26.704 86.6659 26.9387C86.3317 27.1662 85.9406 27.28 85.4926 27.28H83.2313V30H82.2713ZM83.2313 26.4267H85.4393C85.7024 26.4267 85.9299 26.3556 86.1219 26.2133C86.321 26.0711 86.4739 25.8791 86.5806 25.6373C86.6944 25.3956 86.7513 25.1324 86.7513 24.848C86.7513 24.5493 86.6873 24.2827 86.5593 24.048C86.4313 23.8062 86.2641 23.6178 86.0579 23.4827C85.8517 23.3476 85.6241 23.28 85.3753 23.28H83.2313V26.4267Z" fill="#1A202C"/>
<path d="M93.8794 22.4267H94.6901L97.7834 30H96.7594L95.8634 27.7813H92.6848L91.7994 30H90.7754L93.8794 22.4267ZM95.6501 27.0347L94.2848 23.536L92.8768 27.0347H95.6501Z" fill="#1A202C"/>
<path d="M101.994 30V22.4267H105.237C105.571 22.4267 105.877 22.4978 106.154 22.64C106.432 22.7751 106.673 22.96 106.88 23.1947C107.086 23.4222 107.246 23.6818 107.359 23.9733C107.473 24.2578 107.53 24.5493 107.53 24.848C107.53 25.1964 107.463 25.5271 107.327 25.84C107.2 26.1529 107.015 26.4196 106.773 26.64C106.538 26.8604 106.261 27.0133 105.941 27.0987L107.776 30H106.688L104.96 27.28H102.954V30H101.994ZM102.954 26.4267H105.247C105.511 26.4267 105.738 26.3556 105.93 26.2133C106.129 26.064 106.282 25.8684 106.389 25.6267C106.503 25.3849 106.56 25.1253 106.56 24.848C106.56 24.5636 106.496 24.304 106.368 24.0693C106.24 23.8276 106.072 23.6356 105.866 23.4933C105.66 23.3511 105.432 23.28 105.184 23.28H102.954V26.4267Z" fill="#1A202C"/>
<path d="M117.346 29.1467V30H112.205V22.4267H117.25V23.28H113.165V25.7333H116.717V26.5333H113.165V29.1467H117.346Z" fill="#1A202C"/>
</svg>
